<?xml version="1.0" encoding="utf-8" ?><svg xmlns="http://www.w3.org/2000/svg" xmlns:xlink="http://www.w3.org/1999/xlink" width="44" height="44"><circle fill="none" stroke="#C2674E" stroke-width="2" transform="matrix(1 0 0 1 2 2)" cx="20" cy="20" r="20"/><circle fill="#A8533D" transform="matrix(1 0 0 1 14 17)" cx="2" cy="2" r="2"/><circle fill="#A8533D" transform="matrix(1 0 0 1 26 17)" cx="2" cy="2" r="2"/><path fill="#A8533D" transform="matrix(1 0 0 1 15 27)" d="M3.3253 0.7317Q1.6218 0.2075 0.7071 -0.7071Q0.4192 -1.0121 0 -1Q-0.4192 -1.0121 -0.7071 -0.7071Q-1.0121 -0.4192 -1 0Q-1.0121 0.4192 -0.7071 0.7071Q0.5588 1.973 2.7372 2.6433Q4.709 3.25 7 3.25Q9.291 3.25 11.2628 2.6433Q13.4412 1.973 14.7071 0.7071Q15.0121 0.4192 15 0Q15.0121 -0.4192 14.7071 -0.7071Q14.4192 -1.0121 14 -1Q13.5808 -1.0121 13.2929 -0.7071Q12.3782 0.2075 10.6747 0.7317Q8.9903 1.25 7 1.25Q5.0097 1.25 3.3253 0.7317Z" fill-rule="evenodd"/><path fill="#C2674E" transform="matrix(1 0 0 1 13 11.1886)" d="M3.9233 0.9695Q4.783 1.3379 5.376 2.2274Q5.5428 2.494 5.8529 2.5468Q6.1594 2.6174 6.416 2.4354Q6.6826 2.2686 6.7354 1.9585Q6.806 1.6519 6.624 1.3954Q5.7837 0.1349 4.5142 -0.4092Q3.3256 -0.9186 2.1029 -0.674Q0.8735 -0.4282 0.0895 0.4764Q-0.75 1.4451 -0.75 2.8114Q-0.759 3.1258 -0.5303 3.3417Q-0.3144 3.5704 0 3.5614Q0.3144 3.5704 0.5303 3.3417Q0.759 3.1258 0.75 2.8114Q0.75 2.0046 1.223 1.4588Q1.6709 0.9421 2.3971 0.7968Q3.163 0.6436 3.9233 0.9695ZM13.4858 -0.4092Q12.2163 0.1349 11.376 1.3954Q11.194 1.6519 11.2646 1.9585Q11.3174 2.2686 11.584 2.4354Q11.8406 2.6174 12.1471 2.5468Q12.4572 2.494 12.624 2.2274Q13.217 1.3379 14.0767 0.9695Q14.837 0.6436 15.6029 0.7968Q16.3291 0.9421 16.777 1.4588Q17.25 2.0046 17.25 2.8114Q17.241 3.1258 17.4697 3.3417Q17.6856 3.5704 18 3.5614Q18.3144 3.5704 18.5303 3.3417Q18.759 3.1258 18.75 2.8114Q18.75 1.4451 17.9105 0.4764Q17.1265 -0.4282 15.8971 -0.674Q14.6744 -0.9186 13.4858 -0.4092Z" fill-rule="evenodd"/></svg>